<?xml version="1.0" encoding="UTF-8" standalone="no"?>
<!-- Generator: Adobe Illustrator 26.5.0, SVG Export Plug-In . SVG Version: 6.00 Build 0)  -->

<svg
   version="1.1"
   x="0px"
   y="0px"
   viewBox="0 0 1920 1080"
   style="enable-background:new 0 0 1920 1080;"
   xml:space="preserve"
   id="svg870"
   sodipodi:docname="Kubecolor_Logo-large.svg"
   inkscape:version="1.2-dev (9ee32be, 2021-06-19)"
   xmlns:inkscape="http://www.inkscape.org/namespaces/inkscape"
   xmlns:sodipodi="http://sodipodi.sourceforge.net/DTD/sodipodi-0.dtd"
   xmlns="http://www.w3.org/2000/svg"
   xmlns:svg="http://www.w3.org/2000/svg"><defs
   id="defs874">



</defs><sodipodi:namedview
   id="namedview872"
   pagecolor="#505050"
   bordercolor="#ffffff"
   borderopacity="1"
   inkscape:pageshadow="0"
   inkscape:pageopacity="0"
   inkscape:pagecheckerboard="1"
   showgrid="false"
   inkscape:zoom="0.39559522"
   inkscape:cx="1865.5433"
   inkscape:cy="677.46016"
   inkscape:window-width="1652"
   inkscape:window-height="980"
   inkscape:window-x="0"
   inkscape:window-y="25"
   inkscape:window-maximized="0"
   inkscape:current-layer="svg870" />
<style
   type="text/css"
   id="style824">
	.st0{fill:#326CE5;}
	.st1{fill:#FFFFFF;stroke:#FFFFFF;stroke-width:5.398700e-02;stroke-miterlimit:10;}
	.st2{fill:#7500B9;}
	.st3{fill:#F51D00;}
	.st4{fill:#0002F0;}
	.st5{fill:#00EBE4;}
	.st6{fill:#06F402;}
	.st7{fill:#E7F400;}
	.st8{fill:#F5A202;}
</style>

<g
   id="g1491"
   transform="matrix(0.34191897,0,0,0.34191897,473.94799,441.63818)"><g
     id="g847">
		<path
   class="st0"
   d="m 950.2,221.7 c -4.1,0.2 -8.2,1.3 -11.9,3.2 l -161.2,76.9 c -8.4,4 -14.6,11.6 -16.7,20.7 L 721,495.2 c -1.9,8.1 -0.4,16.6 4.2,23.5 0.5,0.8 1.1,1.7 1.7,2.4 l 111.5,138.6 c 5.9,7.2 14.7,11.4 24,11.4 h 178.8 c 9.4,0 18.2,-4.2 24.1,-11.5 L 1176.7,521 c 5.8,-7.2 8,-16.8 5.9,-25.9 l -39.8,-172.9 c -2.1,-9.1 -8.2,-16.7 -16.7,-20.7 L 965,224.8 c -4.5,-2.2 -9.6,-3.3 -14.8,-3.1 z"
   id="path827" />
		<path
   class="st1"
   d="m 952.1,280.5 c -5.6,0.4 -9.8,5.2 -9.5,10.7 v 2.7 c 0.3,3.1 0.7,6.1 1.3,9.2 0.9,5.8 1.2,11.7 0.9,17.5 -0.6,1.9 -1.7,3.7 -3.2,5 l -0.2,4.1 c -5.9,0.5 -11.7,1.4 -17.4,2.7 -24.1,5.4 -46.1,18 -63,36 l -3.5,-2.5 c -1.9,0.6 -4,0.4 -5.7,-0.6 -4.7,-3.5 -9.1,-7.4 -13,-11.7 -2,-2.4 -4.1,-4.6 -6.3,-6.7 l -2.1,-1.7 c -1.9,-1.5 -4.3,-2.4 -6.7,-2.5 -3,-0.2 -5.8,1.1 -7.7,3.4 -3.3,4.6 -2.2,10.9 2.4,14.2 l 2,1.6 c 2.6,1.7 5.2,3.3 8,4.7 5.1,2.9 10,6.2 14.4,10 1.1,1.6 1.8,3.6 1.9,5.6 l 3.2,2.7 c -17,25.6 -24,56.6 -19.7,87 l -4,1.2 c -1.1,1.7 -2.5,3.1 -4.1,4.2 -5.7,1.5 -11.4,2.5 -17.3,2.8 -3.1,0.1 -6.2,0.3 -9.3,0.7 l -2.5,0.6 h -0.3 c -5.3,0.7 -9,5.6 -8.3,10.9 0.3,2.1 1.2,4 2.7,5.5 2.6,2.6 6.4,3.5 9.9,2.4 h 0.2 l 2.6,-0.3 c 2.9,-0.9 5.8,-1.9 8.7,-3.2 5.4,-2.2 11.1,-3.8 16.8,-4.9 2,0.1 3.9,0.8 5.5,2 l 4.2,-0.7 c 9.4,29.2 29.2,53.9 55.6,69.5 l -1.8,3.7 c 0.8,1.7 1.1,3.6 0.9,5.4 -2.4,5.5 -5.3,10.8 -8.7,15.8 -1.9,2.5 -3.6,5 -5.2,7.7 l -1.3,2.6 c -2.7,4.6 -1.1,10.5 3.5,13.2 1.8,1 3.9,1.5 5.9,1.3 3.6,-0.4 6.7,-2.8 8,-6.2 l 1.2,-2.5 c 1.1,-2.9 2,-5.8 2.8,-8.8 2.5,-6.3 4,-13.1 7.5,-17.3 1.1,-1.1 2.6,-1.8 4.1,-2 l 2.2,-4 c 28.6,11 60.3,11.1 89,0.2 l 1.9,3.7 c 2,0.3 3.7,1.4 4.9,3 2.7,5.2 4.9,10.6 6.6,16.2 0.8,3 1.7,6 2.8,8.8 l 1.2,2.5 c 1.9,5 7.4,7.6 12.4,5.7 1.9,-0.7 3.6,-2.1 4.7,-3.8 2,-3.1 2.1,-7 0.2,-10.1 l -1.3,-2.6 c -1.6,-2.7 -3.3,-5.2 -5.2,-7.7 -3.3,-4.8 -6.2,-9.9 -8.5,-15.3 -0.5,-2 -0.1,-4.1 1,-5.8 -0.6,-1.3 -1.2,-2.6 -1.6,-3.9 26.4,-15.7 46.1,-40.5 55.4,-69.8 l 4.1,0.7 c 1.5,-1.3 3.4,-2.1 5.4,-2 5.8,1.1 11.4,2.7 16.8,4.9 2.8,1.3 5.7,2.4 8.7,3.4 0.7,0.2 1.7,0.3 2.5,0.5 h 0.2 c 5.1,1.7 10.5,-1.1 12.2,-6.2 0.7,-2 0.6,-4.2 0,-6.2 -1.2,-3.5 -4.3,-6 -7.9,-6.5 l -2.8,-0.6 c -3.1,-0.4 -6.2,-0.7 -9.3,-0.7 -5.8,-0.4 -11.6,-1.3 -17.3,-2.8 -1.8,-1 -3.2,-2.4 -4.2,-4.2 l -3.9,-1.1 c 4.2,-30.4 -3,-61.3 -20.1,-86.8 l 3.4,-3.2 c -0.1,-2 0.5,-4 1.8,-5.5 4.4,-3.8 9.2,-7.2 14.3,-10.1 2.8,-1.4 5.4,-3 8,-4.7 l 2.1,-1.7 c 4.5,-2.8 5.9,-8.8 3.1,-13.4 -1.2,-1.9 -2.9,-3.3 -5,-4 -3.5,-1.2 -7.4,-0.3 -10.1,2.3 l -2.1,1.7 c -2.2,2.1 -4.3,4.4 -6.3,6.7 -3.8,4.4 -8.1,8.4 -12.6,11.9 -1.9,0.8 -3.9,1 -5.8,0.6 l -3.7,2.6 c -21.1,-22.2 -49.6,-35.9 -80.1,-38.7 0,-1.3 -0.2,-3.6 -0.2,-4.3 -1.6,-1.1 -2.8,-2.9 -3.2,-4.8 -0.2,-5.8 0.2,-11.7 1.1,-17.5 0.6,-3 1.1,-6.1 1.3,-9.2 V 291 c 0.3,-5.6 -3.9,-10.3 -9.5,-10.7 z m -12.1,74.8 -2.8,50.6 H 937 c -0.2,4.7 -4.2,8.3 -8.9,8.1 -1.7,-0.1 -3.3,-0.6 -4.6,-1.6 L 882,382.9 c 13.2,-13 29.8,-22 47.8,-26 3.4,-0.7 6.8,-1.3 10.2,-1.6 z m 24.2,0 c 21.8,2.7 42.1,12.5 57.7,27.8 l -41.1,29.2 c -3.7,2.9 -9,2.3 -11.9,-1.3 -1.2,-1.5 -1.8,-3.3 -1.9,-5.2 z m -97.3,46.7 37.9,33.8 v 0.2 c 3.5,3.1 3.9,8.5 0.8,12 -1.1,1.3 -2.5,2.2 -4.2,2.6 v 0.2 l -48.7,14 c -2.3,-21.9 2.6,-44 14.2,-62.8 z m 170.1,0 c 11.5,18.7 16.6,40.7 14.5,62.6 l -48.7,-14 v -0.2 c -4.5,-1.2 -7.2,-5.9 -6,-10.4 0.4,-1.6 1.3,-3.1 2.6,-4.2 l 37.6,-33.7 z m -92.7,36.5 h 15.5 l 9.5,12 -3.5,15 -13.9,6.7 -14,-6.7 -3.3,-15.1 z m 49.7,41.1 c 0.7,-0.1 1.3,-0.1 2,0 l 50.2,8.5 c -7.4,20.9 -21.5,38.7 -40.2,50.6 l -19.4,-47 c -1.8,-4.3 0.2,-9.3 4.5,-11.2 0.9,-0.4 1.9,-0.6 2.8,-0.7 z m -84.3,0.2 c 4.7,0.1 8.4,3.9 8.4,8.6 0,1.1 -0.3,2.2 -0.7,3.2 v 0.2 l -19.3,46.5 c -18.4,-11.8 -32.4,-29.4 -39.9,-50 l 49.7,-8.5 c 0.6,0.1 1.2,0.1 1.8,0 z m 42.1,20.4 c 3.2,-0.1 6.2,1.6 7.8,4.5 h 0.2 l 24.5,44.2 c -3.2,1.1 -6.5,2 -9.8,2.7 -18,4.1 -36.9,3.2 -54.4,-2.8 l 24.5,-44.2 c 1.5,-2.6 4.2,-4.2 7.2,-4.3 z"
   id="path829" />
		<path
   class="st2"
   d="m 901.4,450.5 c 1.6,-0.4 3.1,-1.3 4.2,-2.6 3.1,-3.5 2.7,-8.9 -0.8,-12 v -0.2 l -37.9,-33.8 v 0 c -11.5,18.8 -16.5,40.9 -14.1,62.8 l 48.7,-14 v -0.2 z"
   id="path831" />
		<path
   class="st3"
   d="m 909.6,479.7 v 0 c -0.7,0 -1.2,0 -1.8,0.1 l -49.7,8.5 c 7.5,20.6 21.5,38.2 39.9,50 l 19.3,-46.5 v -0.2 c 0.4,-1 0.7,-2.1 0.7,-3.2 0.1,-4.8 -3.7,-8.6 -8.4,-8.7 z"
   id="path833" />
		<path
   class="st4"
   d="m 928,413.8 c 4.7,0.2 8.7,-3.4 8.9,-8.1 h 0.2 l 2.8,-50.6 c -3.4,0.4 -6.8,0.9 -10.2,1.6 -18.1,4.1 -34.6,13.1 -47.8,26 l 41.5,29.4 c 1.3,1.1 2.9,1.7 4.6,1.7 z"
   id="path835" />
		<polygon
   class="st0"
   points="934.6,450.4 937.8,465.4 951.8,472.1 965.7,465.4 969.2,450.4 959.7,438.4 944.2,438.4 "
   id="polygon837" />
		<path
   class="st5"
   d="m 968.8,410.9 c 2.9,3.7 8.3,4.3 11.9,1.3 l 41.1,-29.2 c -15.7,-15.4 -36,-25.1 -57.7,-27.8 l 2.8,50.5 c 0,1.9 0.7,3.7 1.9,5.2 z"
   id="path839" />
		<path
   class="st6"
   d="m 1037,402 -37.6,33.7 c -1.3,1.1 -2.2,2.5 -2.6,4.2 -1.2,4.5 1.4,9.2 6,10.4 v 0.2 l 48.7,14 c 2.1,-21.9 -3,-43.9 -14.5,-62.6 z"
   id="path841" />
		<path
   class="st7"
   d="m 993.9,479.5 -0.1,0.2 c -1,0.1 -1.9,0.3 -2.8,0.7 -4.3,1.8 -6.4,6.8 -4.5,11.2 l 19.4,47 c 18.6,-11.9 32.8,-29.7 40.2,-50.6 l -50.2,-8.5 c -0.7,-0.1 -1.3,-0.1 -2,0 z"
   id="path843" />
		<path
   class="st8"
   d="m 959.5,504.6 c -1.5,-2.8 -4.6,-4.6 -7.8,-4.5 v 0.1 c -3,0 -5.7,1.7 -7.2,4.3 L 920,548.7 c 17.5,6 36.4,6.9 54.4,2.8 3.3,-0.8 6.6,-1.7 9.8,-2.7 l -24.5,-44.2 z"
   id="path845" />
	</g><g
     id="g867"
     transform="matrix(1.7158209,0,0,1.7158209,217.07787,-726.74603)">
		<path
   d="m 645.1,793.1 c -3.4,-4.2 -7.1,-8.3 -10.9,-12.3 v 0 c -3.8,-4 -7.7,-7.8 -11.6,-11.3 -2.4,-2.2 -4.7,-4.1 -6.9,-5.9 5.4,-4.7 11,-9.6 16.6,-14.6 6.9,-6.2 12.9,-12.3 17.9,-18.2 l 5.3,-6.3 H 629 l -1.1,1.3 c -4.8,5.6 -10.3,11.1 -16.4,16.3 -4.1,3.5 -8.2,7.1 -12.3,10.7 v -67.7 l -21.7,3.7 v 121.9 h 21.7 v -34.1 c 1.1,0.8 2.2,1.7 3.4,2.6 3.4,2.7 6.9,5.8 10.4,9.1 3.4,3.3 6.7,6.7 9.8,10.3 3,3.5 5.6,6.9 7.6,10.2 l 1.1,1.8 h 25.3 l -3.3,-5.7 c -2.1,-3.5 -4.9,-7.5 -8.4,-11.8 z"
   id="path849"
   style="fill:#ffffff" />
		<path
   d="m 712.1,791.6 c -0.7,0.1 -1.4,0.2 -2.2,0.3 -1.3,0.2 -2.7,0.3 -4.1,0.4 -1.4,0.1 -2.8,0.2 -4.2,0.2 -5.5,0 -9.2,-1.5 -11.4,-4.5 -1.6,-2.3 -3.6,-7.4 -3.6,-18.4 V 724.7 H 665 v 48 c 0,5.6 0.5,10.8 1.6,15.4 1.1,4.9 3.1,9.3 5.9,12.9 2.9,3.7 6.6,6.6 11.1,8.6 4.4,2 10,2.9 16.4,2.9 7,0 13.1,-0.5 18.4,-1.4 5.1,-0.9 9.3,-1.8 12.4,-2.6 l 2.9,-0.7 V 724.7 H 712 v 66.9 z"
   id="path851"
   style="fill:#ffffff" />
		<path
   d="m 817.3,735.7 v 0 c -3.2,-4 -7.2,-7.2 -11.9,-9.5 -4.7,-2.3 -10,-3.4 -15.9,-3.4 -4.3,0 -8.4,0.6 -12,1.8 -0.8,0.3 -1.6,0.5 -2.3,0.8 v -40.2 l -21.7,3.7 v 118.7 l 2.7,0.8 c 3.1,1 7,1.9 12.1,2.8 5.1,0.9 10.9,1.4 17.3,1.4 6.1,0 11.8,-1.1 16.9,-3.2 5.1,-2.1 9.6,-5.2 13.2,-9.1 3.6,-3.9 6.4,-8.7 8.4,-14.3 1.9,-5.5 2.9,-11.6 2.9,-18.4 0,-6.4 -0.8,-12.4 -2.4,-17.8 -1.7,-5.3 -4.2,-10.1 -7.3,-14.1 z m -12.3,32 c 0,8.6 -1.9,14.9 -5.6,19 v 0 c -4.6,5 -11.6,6.8 -21.1,5.6 -1,-0.1 -2.1,-0.3 -3.1,-0.5 v -44.9 c 1.2,-0.8 2.7,-1.7 4.6,-2.5 2.6,-1.1 5.2,-1.6 8,-1.6 3,0 5.6,0.6 7.7,1.7 2.1,1.2 3.8,2.7 5.2,4.8 1.4,2.1 2.5,4.8 3.2,7.8 0.7,3.3 1.1,6.9 1.1,10.6 z"
   id="path853"
   style="fill:#ffffff" />
		<path
   d="m 877.1,722.8 c -5.1,0 -10.1,0.9 -14.9,2.8 -4.9,1.9 -9.3,4.7 -13.1,8.4 -3.9,3.7 -7,8.5 -9.3,14.1 -2.3,5.6 -3.5,12.3 -3.5,19.7 0,6.3 0.9,12.2 2.7,17.5 1.9,5.5 4.7,10.3 8.4,14.3 3.7,4 8.5,7.2 14.1,9.5 5.6,2.3 12.1,3.4 19.3,3.4 5.8,0 11.1,-0.5 15.7,-1.6 4.8,-1.1 8,-2.1 10.1,-3.2 l 2.4,-1.3 -3.1,-19.7 -4.7,2.3 c -1,0.5 -3.1,1.3 -7.1,2.2 -3.2,0.7 -7.2,1.1 -11.8,1.1 -7.7,0 -13.6,-1.8 -17.7,-5.4 -3.2,-2.9 -5.3,-6.7 -6.2,-11.8 h 55.7 v -8.7 c 0,-14.3 -3.2,-25.3 -9.6,-32.5 -6.4,-7.3 -15.7,-11.1 -27.4,-11.1 z m -0.1,19.5 c 4.7,0 8.3,1.5 11,4.6 2.2,2.4 3.5,5.6 4,9.5 h -32.8 c 0.3,-0.9 0.6,-1.8 1,-2.6 0.9,-2.2 2.2,-4.1 3.8,-5.8 1.6,-1.7 3.5,-3 5.7,-4.1 2.1,-1.1 4.6,-1.6 7.3,-1.6 z"
   id="path855"
   style="fill:#ffffff" />
		<path
   d="m 994.3,789.5 c -3.7,1.3 -7.1,2.1 -10.1,2.4 v 0 c -3.1,0.4 -6.5,0.6 -10,0.6 -4.1,0 -7.9,-0.5 -11.2,-1.5 -3.2,-1 -5.9,-2.4 -8.2,-4.4 -2.2,-1.9 -3.9,-4.4 -5.2,-7.4 -1.3,-3.1 -1.9,-6.9 -1.9,-11.3 0,-4.6 0.7,-8.6 2.1,-11.8 1.3,-3.1 3.1,-5.7 5.3,-7.6 2.2,-1.9 4.9,-3.4 8,-4.3 5.9,-1.7 12.8,-1.7 19.3,-0.9 2.8,0.4 6,1.2 9.4,2.4 l 3.9,1.4 5.2,-19.6 -3.5,-1.1 c -4.5,-1.4 -8.8,-2.4 -12.7,-2.9 -3.9,-0.5 -7.9,-0.8 -11.9,-0.8 -6.3,0 -12.4,0.9 -18,2.6 -5.7,1.8 -10.8,4.6 -15.1,8.3 -4.4,3.7 -7.8,8.5 -10.3,14.2 -2.5,5.6 -3.7,12.4 -3.7,20 0,7.2 1.1,13.7 3.4,19.3 2.3,5.7 5.6,10.4 9.8,14.2 4.2,3.7 9.2,6.6 14.9,8.5 5.6,1.9 11.9,2.8 18.5,2.8 4.9,0 9.5,-0.3 13.8,-1 4.3,-0.7 8.6,-1.8 12.8,-3.3 l 3,-1.1 -3.3,-19.2 z"
   id="path857"
   style="fill:#ffffff" />
		<path
   d="m 1080,735.3 v 0 c -3.5,-3.9 -7.8,-7.1 -12.6,-9.2 -4.9,-2.2 -10.2,-3.3 -15.9,-3.3 -5.6,0 -10.9,1.1 -15.7,3.3 -4.8,2.2 -9,5.3 -12.5,9.2 -3.5,3.9 -6.2,8.7 -8.1,14.2 -1.9,5.4 -2.8,11.6 -2.8,18.2 0,6.6 1,12.7 2.8,18.1 1.9,5.5 4.6,10.2 8.1,14.2 3.5,4 7.7,7.1 12.5,9.3 4.8,2.2 10.1,3.3 15.7,3.3 5.7,0 11.1,-1.1 15.9,-3.3 4.9,-2.2 9.1,-5.3 12.6,-9.3 3.5,-4 6.2,-8.7 8.1,-14.2 1.9,-5.4 2.8,-11.5 2.8,-18.1 0,-6.6 -1,-12.7 -2.8,-18.2 -1.9,-5.5 -4.7,-10.3 -8.1,-14.2 z m -11.1,32.4 c 0,7.9 -1.7,14.2 -5,18.6 -3.1,4.1 -7.2,6.2 -12.5,6.2 -5.2,0 -9.2,-2 -12.2,-6.1 -3.3,-4.4 -4.9,-10.7 -4.9,-18.6 0,-8 1.7,-14.4 4.9,-18.8 3,-4.1 7,-6.1 12.2,-6.1 5.3,0 9.4,2 12.5,6.2 3.3,4.3 5,10.6 5,18.6 z"
   id="path859"
   style="fill:#ffffff" />
		<path
   d="m 1155.2,789.3 c -1.3,0.7 -3.2,1.5 -5.7,2.2 v 0 c -2.5,0.7 -5.2,1 -8.1,1 -1.7,0 -3.1,-0.2 -4.3,-0.6 -0.8,-0.3 -1.5,-0.9 -2.1,-1.7 -0.8,-1.1 -1.4,-2.6 -1.8,-4.6 -0.5,-2.2 -0.7,-5.2 -0.7,-8.9 v -89.9 h -44.2 v 19.5 h 22.7 v 70.5 c 0,5.5 0.4,10.5 1.3,14.7 0.9,4.5 2.5,8.4 4.7,11.5 2.3,3.3 5.5,5.8 9.4,7.4 3.7,1.5 8.4,2.3 13.8,2.3 2.3,0 4.6,-0.2 6.8,-0.6 2.1,-0.4 4,-0.8 5.8,-1.3 1.8,-0.5 3.5,-1 4.9,-1.6 1.3,-0.5 2.4,-1 3.1,-1.4 l 2.5,-1.3 -3.4,-20 z"
   id="path861"
   style="fill:#ffffff" />
		<path
   d="m 1236,735.3 v 0 c -3.5,-3.9 -7.8,-7.1 -12.6,-9.2 -4.9,-2.2 -10.2,-3.3 -15.9,-3.3 -5.6,0 -10.9,1.1 -15.7,3.3 -4.8,2.2 -9,5.3 -12.5,9.2 -3.5,3.9 -6.2,8.7 -8.1,14.2 -1.9,5.4 -2.8,11.6 -2.8,18.2 0,6.6 1,12.7 2.8,18.1 1.9,5.5 4.6,10.2 8.1,14.2 3.5,4 7.7,7.1 12.5,9.3 4.8,2.2 10.1,3.3 15.7,3.3 5.7,0 11.1,-1.1 15.9,-3.3 4.9,-2.2 9.1,-5.3 12.6,-9.3 3.5,-4 6.2,-8.7 8.1,-14.2 1.9,-5.4 2.8,-11.5 2.8,-18.1 0,-6.6 -1,-12.7 -2.8,-18.2 -1.9,-5.5 -4.7,-10.3 -8.1,-14.2 z m -11.1,32.4 c 0,7.9 -1.7,14.2 -5,18.6 -3.1,4.1 -7.2,6.2 -12.5,6.2 -5.2,0 -9.2,-2 -12.2,-6.1 -3.3,-4.4 -4.9,-10.7 -4.9,-18.6 0,-8 1.7,-14.4 4.9,-18.8 3,-4.1 7,-6.1 12.2,-6.1 5.3,0 9.4,2 12.5,6.2 3.3,4.3 5,10.6 5,18.6 z"
   id="path863"
   style="fill:#ffffff" />
		<path
   d="m 1322.4,725.2 c -4.1,-0.9 -7.9,-1.6 -11.3,-1.9 v 0 c -3.4,-0.3 -7,-0.4 -10.6,-0.4 -12.1,0 -24.2,2.1 -36.1,6.1 l -2.6,0.9 v 80.8 h 21.5 v -66 c 5.8,-1.4 11.6,-2 17.2,-2 3.1,0 6,0.1 8.7,0.4 2.5,0.3 5.5,0.9 8.9,1.8 l 3.9,1.1 4.1,-20 z"
   id="path865"
   style="fill:#ffffff" />
	</g></g>
</svg>
