<svg enable-background="new 0 0 1920 1080" version="1.1" viewBox="0 0 1920 1080" xml:space="preserve" xmlns="http://www.w3.org/2000/svg">
<style type="text/css">
	.st0{fill:#326CE5;}
	.st1{fill:#FFFFFF;stroke:#FFFFFF;stroke-width:5.398700e-02;stroke-miterlimit:10;}
	.st2{fill:#7500B9;}
	.st3{fill:#F51D00;}
	.st4{fill:#0002F0;}
	.st5{fill:#00EBE4;}
	.st6{fill:#06F402;}
	.st7{fill:#E7F400;}
	.st8{fill:#F5A202;}
</style>

<g transform="matrix(.34192 0 0 .34192 473.95 441.64)">
		<path class="st0" d="m950.2 221.7c-4.1 0.2-8.2 1.3-11.9 3.2l-161.2 76.9c-8.4 4-14.6 11.6-16.7 20.7l-39.4 172.7c-1.9 8.1-0.4 16.6 4.2 23.5 0.5 0.8 1.1 1.7 1.7 2.4l111.5 138.6c5.9 7.2 14.7 11.4 24 11.4h178.8c9.4 0 18.2-4.2 24.1-11.5l111.4-138.6c5.8-7.2 8-16.8 5.9-25.9l-39.8-172.9c-2.1-9.1-8.2-16.7-16.7-20.7l-161.1-76.7c-4.5-2.2-9.6-3.3-14.8-3.1z"/>
		<path class="st1" d="m952.1 280.5c-5.6 0.4-9.8 5.2-9.5 10.7v2.7c0.3 3.1 0.7 6.1 1.3 9.2 0.9 5.8 1.2 11.7 0.9 17.5-0.6 1.9-1.7 3.7-3.2 5l-0.2 4.1c-5.9 0.5-11.7 1.4-17.4 2.7-24.1 5.4-46.1 18-63 36l-3.5-2.5c-1.9 0.6-4 0.4-5.7-0.6-4.7-3.5-9.1-7.4-13-11.7-2-2.4-4.1-4.6-6.3-6.7l-2.1-1.7c-1.9-1.5-4.3-2.4-6.7-2.5-3-0.2-5.8 1.1-7.7 3.4-3.3 4.6-2.2 10.9 2.4 14.2l2 1.6c2.6 1.7 5.2 3.3 8 4.7 5.1 2.9 10 6.2 14.4 10 1.1 1.6 1.8 3.6 1.9 5.6l3.2 2.7c-17 25.6-24 56.6-19.7 87l-4 1.2c-1.1 1.7-2.5 3.1-4.1 4.2-5.7 1.5-11.4 2.5-17.3 2.8-3.1 0.1-6.2 0.3-9.3 0.7l-2.5 0.6h-0.3c-5.3 0.7-9 5.6-8.3 10.9 0.3 2.1 1.2 4 2.7 5.5 2.6 2.6 6.4 3.5 9.9 2.4h0.2l2.6-0.3c2.9-0.9 5.8-1.9 8.7-3.2 5.4-2.2 11.1-3.8 16.8-4.9 2 0.1 3.9 0.8 5.5 2l4.2-0.7c9.4 29.2 29.2 53.9 55.6 69.5l-1.8 3.7c0.8 1.7 1.1 3.6 0.9 5.4-2.4 5.5-5.3 10.8-8.7 15.8-1.9 2.5-3.6 5-5.2 7.7l-1.3 2.6c-2.7 4.6-1.1 10.5 3.5 13.2 1.8 1 3.9 1.5 5.9 1.3 3.6-0.4 6.7-2.8 8-6.2l1.2-2.5c1.1-2.9 2-5.8 2.8-8.8 2.5-6.3 4-13.1 7.5-17.3 1.1-1.1 2.6-1.8 4.1-2l2.2-4c28.6 11 60.3 11.1 89 0.2l1.9 3.7c2 0.3 3.7 1.4 4.9 3 2.7 5.2 4.9 10.6 6.6 16.2 0.8 3 1.7 6 2.8 8.8l1.2 2.5c1.9 5 7.4 7.6 12.4 5.7 1.9-0.7 3.6-2.1 4.7-3.8 2-3.1 2.1-7 0.2-10.1l-1.3-2.6c-1.6-2.7-3.3-5.2-5.2-7.7-3.3-4.8-6.2-9.9-8.5-15.3-0.5-2-0.1-4.1 1-5.8-0.6-1.3-1.2-2.6-1.6-3.9 26.4-15.7 46.1-40.5 55.4-69.8l4.1 0.7c1.5-1.3 3.4-2.1 5.4-2 5.8 1.1 11.4 2.7 16.8 4.9 2.8 1.3 5.7 2.4 8.7 3.4 0.7 0.2 1.7 0.3 2.5 0.5h0.2c5.1 1.7 10.5-1.1 12.2-6.2 0.7-2 0.6-4.2 0-6.2-1.2-3.5-4.3-6-7.9-6.5l-2.8-0.6c-3.1-0.4-6.2-0.7-9.3-0.7-5.8-0.4-11.6-1.3-17.3-2.8-1.8-1-3.2-2.4-4.2-4.2l-3.9-1.1c4.2-30.4-3-61.3-20.1-86.8l3.4-3.2c-0.1-2 0.5-4 1.8-5.5 4.4-3.8 9.2-7.2 14.3-10.1 2.8-1.4 5.4-3 8-4.7l2.1-1.7c4.5-2.8 5.9-8.8 3.1-13.4-1.2-1.9-2.9-3.3-5-4-3.5-1.2-7.4-0.3-10.1 2.3l-2.1 1.7c-2.2 2.1-4.3 4.4-6.3 6.7-3.8 4.4-8.1 8.4-12.6 11.9-1.9 0.8-3.9 1-5.8 0.6l-3.7 2.6c-21.1-22.2-49.6-35.9-80.1-38.7 0-1.3-0.2-3.6-0.2-4.3-1.6-1.1-2.8-2.9-3.2-4.8-0.2-5.8 0.2-11.7 1.1-17.5 0.6-3 1.1-6.1 1.3-9.2v-2.7c0.3-5.6-3.9-10.3-9.5-10.7zm-12.1 74.8-2.8 50.6h-0.2c-0.2 4.7-4.2 8.3-8.9 8.1-1.7-0.1-3.3-0.6-4.6-1.6l-41.5-29.5c13.2-13 29.8-22 47.8-26 3.4-0.7 6.8-1.3 10.2-1.6zm24.2 0c21.8 2.7 42.1 12.5 57.7 27.8l-41.1 29.2c-3.7 2.9-9 2.3-11.9-1.3-1.2-1.5-1.8-3.3-1.9-5.2zm-97.3 46.7 37.9 33.8v0.2c3.5 3.1 3.9 8.5 0.8 12-1.1 1.3-2.5 2.2-4.2 2.6v0.2l-48.7 14c-2.3-21.9 2.6-44 14.2-62.8zm170.1 0c11.5 18.7 16.6 40.7 14.5 62.6l-48.7-14v-0.2c-4.5-1.2-7.2-5.9-6-10.4 0.4-1.6 1.3-3.1 2.6-4.2l37.6-33.7zm-92.7 36.5h15.5l9.5 12-3.5 15-13.9 6.7-14-6.7-3.3-15.1zm49.7 41.1c0.7-0.1 1.3-0.1 2 0l50.2 8.5c-7.4 20.9-21.5 38.7-40.2 50.6l-19.4-47c-1.8-4.3 0.2-9.3 4.5-11.2 0.9-0.4 1.9-0.6 2.8-0.7zm-84.3 0.2c4.7 0.1 8.4 3.9 8.4 8.6 0 1.1-0.3 2.2-0.7 3.2v0.2l-19.3 46.5c-18.4-11.8-32.4-29.4-39.9-50l49.7-8.5c0.6 0.1 1.2 0.1 1.8 0zm42.1 20.4c3.2-0.1 6.2 1.6 7.8 4.5h0.2l24.5 44.2c-3.2 1.1-6.5 2-9.8 2.7-18 4.1-36.9 3.2-54.4-2.8l24.5-44.2c1.5-2.6 4.2-4.2 7.2-4.3z"/>
		<path class="st2" d="m901.4 450.5c1.6-0.4 3.1-1.3 4.2-2.6 3.1-3.5 2.7-8.9-0.8-12v-0.2l-37.9-33.8c-11.5 18.8-16.5 40.9-14.1 62.8l48.7-14v-0.2z"/>
		<path class="st3" d="m909.6 479.7c-0.7 0-1.2 0-1.8 0.1l-49.7 8.5c7.5 20.6 21.5 38.2 39.9 50l19.3-46.5v-0.2c0.4-1 0.7-2.1 0.7-3.2 0.1-4.8-3.7-8.6-8.4-8.7z"/>
		<path class="st4" d="m928 413.8c4.7 0.2 8.7-3.4 8.9-8.1h0.2l2.8-50.6c-3.4 0.4-6.8 0.9-10.2 1.6-18.1 4.1-34.6 13.1-47.8 26l41.5 29.4c1.3 1.1 2.9 1.7 4.6 1.7z"/>
		<polygon class="st0" points="934.6 450.4 937.8 465.4 951.8 472.1 965.7 465.4 969.2 450.4 959.7 438.4 944.2 438.4"/>
		<path class="st5" d="m968.8 410.9c2.9 3.7 8.3 4.3 11.9 1.3l41.1-29.2c-15.7-15.4-36-25.1-57.7-27.8l2.8 50.5c0 1.9 0.7 3.7 1.9 5.2z"/>
		<path class="st6" d="m1037 402-37.6 33.7c-1.3 1.1-2.2 2.5-2.6 4.2-1.2 4.5 1.4 9.2 6 10.4v0.2l48.7 14c2.1-21.9-3-43.9-14.5-62.6z"/>
		<path class="st7" d="m993.9 479.5-0.1 0.2c-1 0.1-1.9 0.3-2.8 0.7-4.3 1.8-6.4 6.8-4.5 11.2l19.4 47c18.6-11.9 32.8-29.7 40.2-50.6l-50.2-8.5c-0.7-0.1-1.3-0.1-2 0z"/>
		<path class="st8" d="m959.5 504.6c-1.5-2.8-4.6-4.6-7.8-4.5v0.1c-3 0-5.7 1.7-7.2 4.3l-24.5 44.2c17.5 6 36.4 6.9 54.4 2.8 3.3-0.8 6.6-1.7 9.8-2.7l-24.5-44.2z"/>
	<g transform="matrix(1.7158 0 0 1.7158 217.08 -726.75)" fill="#fff">
		<path d="m645.1 793.1c-3.4-4.2-7.1-8.3-10.9-12.3s-7.7-7.8-11.6-11.3c-2.4-2.2-4.7-4.1-6.9-5.9 5.4-4.7 11-9.6 16.6-14.6 6.9-6.2 12.9-12.3 17.9-18.2l5.3-6.3h-26.5l-1.1 1.3c-4.8 5.6-10.3 11.1-16.4 16.3-4.1 3.5-8.2 7.1-12.3 10.7v-67.7l-21.7 3.7v121.9h21.7v-34.1c1.1 0.8 2.2 1.7 3.4 2.6 3.4 2.7 6.9 5.8 10.4 9.1 3.4 3.3 6.7 6.7 9.8 10.3 3 3.5 5.6 6.9 7.6 10.2l1.1 1.8h25.3l-3.3-5.7c-2.1-3.5-4.9-7.5-8.4-11.8z"/>
		<path d="m712.1 791.6c-0.7 0.1-1.4 0.2-2.2 0.3-1.3 0.2-2.7 0.3-4.1 0.4s-2.8 0.2-4.2 0.2c-5.5 0-9.2-1.5-11.4-4.5-1.6-2.3-3.6-7.4-3.6-18.4v-44.9h-21.6v48c0 5.6 0.5 10.8 1.6 15.4 1.1 4.9 3.1 9.3 5.9 12.9 2.9 3.7 6.6 6.6 11.1 8.6 4.4 2 10 2.9 16.4 2.9 7 0 13.1-0.5 18.4-1.4 5.1-0.9 9.3-1.8 12.4-2.6l2.9-0.7v-83.1h-21.7v66.9z"/>
		<path d="m817.3 735.7c-3.2-4-7.2-7.2-11.9-9.5s-10-3.4-15.9-3.4c-4.3 0-8.4 0.6-12 1.8-0.8 0.3-1.6 0.5-2.3 0.8v-40.2l-21.7 3.7v118.7l2.7 0.8c3.1 1 7 1.9 12.1 2.8s10.9 1.4 17.3 1.4c6.1 0 11.8-1.1 16.9-3.2s9.6-5.2 13.2-9.1 6.4-8.7 8.4-14.3c1.9-5.5 2.9-11.6 2.9-18.4 0-6.4-0.8-12.4-2.4-17.8-1.7-5.3-4.2-10.1-7.3-14.1zm-12.3 32c0 8.6-1.9 14.9-5.6 19-4.6 5-11.6 6.8-21.1 5.6-1-0.1-2.1-0.3-3.1-0.5v-44.9c1.2-0.8 2.7-1.7 4.6-2.5 2.6-1.1 5.2-1.6 8-1.6 3 0 5.6 0.6 7.7 1.7 2.1 1.2 3.8 2.7 5.2 4.8s2.5 4.8 3.2 7.8c0.7 3.3 1.1 6.9 1.1 10.6z"/>
		<path d="m877.1 722.8c-5.1 0-10.1 0.9-14.9 2.8-4.9 1.9-9.3 4.7-13.1 8.4-3.9 3.7-7 8.5-9.3 14.1s-3.5 12.3-3.5 19.7c0 6.3 0.9 12.2 2.7 17.5 1.9 5.5 4.7 10.3 8.4 14.3s8.5 7.2 14.1 9.5 12.1 3.4 19.3 3.4c5.8 0 11.1-0.5 15.7-1.6 4.8-1.1 8-2.1 10.1-3.2l2.4-1.3-3.1-19.7-4.7 2.3c-1 0.5-3.1 1.3-7.1 2.2-3.2 0.7-7.2 1.1-11.8 1.1-7.7 0-13.6-1.8-17.7-5.4-3.2-2.9-5.3-6.7-6.2-11.8h55.7v-8.7c0-14.3-3.2-25.3-9.6-32.5-6.4-7.3-15.7-11.1-27.4-11.1zm-0.1 19.5c4.7 0 8.3 1.5 11 4.6 2.2 2.4 3.5 5.6 4 9.5h-32.8c0.3-0.9 0.6-1.8 1-2.6 0.9-2.2 2.2-4.1 3.8-5.8s3.5-3 5.7-4.1c2.1-1.1 4.6-1.6 7.3-1.6z"/>
		<path d="m994.3 789.5c-3.7 1.3-7.1 2.1-10.1 2.4-3.1 0.4-6.5 0.6-10 0.6-4.1 0-7.9-0.5-11.2-1.5-3.2-1-5.9-2.4-8.2-4.4-2.2-1.9-3.9-4.4-5.2-7.4-1.3-3.1-1.9-6.9-1.9-11.3 0-4.6 0.7-8.6 2.1-11.8 1.3-3.1 3.1-5.7 5.3-7.6s4.9-3.4 8-4.3c5.9-1.7 12.8-1.7 19.3-0.9 2.8 0.4 6 1.2 9.4 2.4l3.9 1.4 5.2-19.6-3.5-1.1c-4.5-1.4-8.8-2.4-12.7-2.9s-7.9-0.8-11.9-0.8c-6.3 0-12.4 0.9-18 2.6-5.7 1.8-10.8 4.6-15.1 8.3-4.4 3.7-7.8 8.5-10.3 14.2-2.5 5.6-3.7 12.4-3.7 20 0 7.2 1.1 13.7 3.4 19.3 2.3 5.7 5.6 10.4 9.8 14.2 4.2 3.7 9.2 6.6 14.9 8.5 5.6 1.9 11.9 2.8 18.5 2.8 4.9 0 9.5-0.3 13.8-1s8.6-1.8 12.8-3.3l3-1.1-3.3-19.2z"/>
		<path d="m1080 735.3c-3.5-3.9-7.8-7.1-12.6-9.2-4.9-2.2-10.2-3.3-15.9-3.3-5.6 0-10.9 1.1-15.7 3.3s-9 5.3-12.5 9.2-6.2 8.7-8.1 14.2c-1.9 5.4-2.8 11.6-2.8 18.2s1 12.7 2.8 18.1c1.9 5.5 4.6 10.2 8.1 14.2s7.7 7.1 12.5 9.3 10.1 3.3 15.7 3.3c5.7 0 11.1-1.1 15.9-3.3 4.9-2.2 9.1-5.3 12.6-9.3s6.2-8.7 8.1-14.2c1.9-5.4 2.8-11.5 2.8-18.1s-1-12.7-2.8-18.2c-1.9-5.5-4.7-10.3-8.1-14.2zm-11.1 32.4c0 7.9-1.7 14.2-5 18.6-3.1 4.1-7.2 6.2-12.5 6.2-5.2 0-9.2-2-12.2-6.1-3.3-4.4-4.9-10.7-4.9-18.6 0-8 1.7-14.4 4.9-18.8 3-4.1 7-6.1 12.2-6.1 5.3 0 9.4 2 12.5 6.2 3.3 4.3 5 10.6 5 18.6z"/>
		<path d="m1155.2 789.3c-1.3 0.7-3.2 1.5-5.7 2.2s-5.2 1-8.1 1c-1.7 0-3.1-0.2-4.3-0.6-0.8-0.3-1.5-0.9-2.1-1.7-0.8-1.1-1.4-2.6-1.8-4.6-0.5-2.2-0.7-5.2-0.7-8.9v-89.9h-44.2v19.5h22.7v70.5c0 5.5 0.4 10.5 1.3 14.7 0.9 4.5 2.5 8.4 4.7 11.5 2.3 3.3 5.5 5.8 9.4 7.4 3.7 1.5 8.4 2.3 13.8 2.3 2.3 0 4.6-0.2 6.8-0.6 2.1-0.4 4-0.8 5.8-1.3s3.5-1 4.9-1.6c1.3-0.5 2.4-1 3.1-1.4l2.5-1.3-3.4-20z"/>
		<path d="m1236 735.3c-3.5-3.9-7.8-7.1-12.6-9.2-4.9-2.2-10.2-3.3-15.9-3.3-5.6 0-10.9 1.1-15.7 3.3s-9 5.3-12.5 9.2-6.2 8.7-8.1 14.2c-1.9 5.4-2.8 11.6-2.8 18.2s1 12.7 2.8 18.1c1.9 5.5 4.6 10.2 8.1 14.2s7.7 7.1 12.5 9.3 10.1 3.3 15.7 3.3c5.7 0 11.1-1.1 15.9-3.3 4.9-2.2 9.1-5.3 12.6-9.3s6.2-8.7 8.1-14.2c1.9-5.4 2.8-11.5 2.8-18.1s-1-12.7-2.8-18.2c-1.9-5.5-4.7-10.3-8.1-14.2zm-11.1 32.4c0 7.9-1.7 14.2-5 18.6-3.1 4.1-7.2 6.2-12.5 6.2-5.2 0-9.2-2-12.2-6.1-3.3-4.4-4.9-10.7-4.9-18.6 0-8 1.7-14.4 4.9-18.8 3-4.1 7-6.1 12.2-6.1 5.3 0 9.4 2 12.5 6.2 3.3 4.3 5 10.6 5 18.6z"/>
		<path d="m1322.4 725.2c-4.1-0.9-7.9-1.6-11.3-1.9s-7-0.4-10.6-0.4c-12.1 0-24.2 2.1-36.1 6.1l-2.6 0.9v80.8h21.5v-66c5.8-1.4 11.6-2 17.2-2 3.1 0 6 0.1 8.7 0.4 2.5 0.3 5.5 0.9 8.9 1.8l3.9 1.1 4.1-20z"/>
	</g></g>
</svg>
