<svg enable-background="new 0 0 1920 1080" version="1.1" viewBox="0 0 1920 1080" xml:space="preserve" xmlns="http://www.w3.org/2000/svg">
<style type="text/css">
	.st0{fill:#326CE5;}
	.st1{fill:#FFFFFF;stroke:#FFFFFF;stroke-width:5.398700e-02;stroke-miterlimit:10;}
	.st2{fill:#7500B9;}
	.st3{fill:#F51D00;}
	.st4{fill:#0002F0;}
	.st5{fill:#00EBE4;}
	.st6{fill:#06F402;}
	.st7{fill:#E7F400;}
	.st8{fill:#F5A202;}
</style>


		<path class="st0" d="m950.2 221.7c-4.1 0.2-8.2 1.3-11.9 3.2l-161.2 76.9c-8.4 4-14.6 11.6-16.7 20.7l-39.4 172.7c-1.9 8.1-0.4 16.6 4.2 23.5 0.5 0.8 1.1 1.7 1.7 2.4l111.5 138.6c5.9 7.2 14.7 11.4 24 11.4h178.8c9.4 0 18.2-4.2 24.1-11.5l111.4-138.6c5.8-7.2 8-16.8 5.9-25.9l-39.8-172.9c-2.1-9.1-8.2-16.7-16.7-20.7l-161.1-76.7c-4.5-2.2-9.6-3.3-14.8-3.1z"/>
		<path class="st1" d="m952.1 280.5c-5.6 0.4-9.8 5.2-9.5 10.7v2.7c0.3 3.1 0.7 6.1 1.3 9.2 0.9 5.8 1.2 11.7 0.9 17.5-0.6 1.9-1.7 3.7-3.2 5l-0.2 4.1c-5.9 0.5-11.7 1.4-17.4 2.7-24.1 5.4-46.1 18-63 36l-3.5-2.5c-1.9 0.6-4 0.4-5.7-0.6-4.7-3.5-9.1-7.4-13-11.7-2-2.4-4.1-4.6-6.3-6.7l-2.1-1.7c-1.9-1.5-4.3-2.4-6.7-2.5-3-0.2-5.8 1.1-7.7 3.4-3.3 4.6-2.2 10.9 2.4 14.2l2 1.6c2.6 1.7 5.2 3.3 8 4.7 5.1 2.9 10 6.2 14.4 10 1.1 1.6 1.8 3.6 1.9 5.6l3.2 2.7c-17 25.6-24 56.6-19.7 87l-4 1.2c-1.1 1.7-2.5 3.1-4.1 4.2-5.7 1.5-11.4 2.5-17.3 2.8-3.1 0.1-6.2 0.3-9.3 0.7l-2.5 0.6h-0.3c-5.3 0.7-9 5.6-8.3 10.9 0.3 2.1 1.2 4 2.7 5.5 2.6 2.6 6.4 3.5 9.9 2.4h0.2l2.6-0.3c2.9-0.9 5.8-1.9 8.7-3.2 5.4-2.2 11.1-3.8 16.8-4.9 2 0.1 3.9 0.8 5.5 2l4.2-0.7c9.4 29.2 29.2 53.9 55.6 69.5l-1.8 3.7c0.8 1.7 1.1 3.6 0.9 5.4-2.4 5.5-5.3 10.8-8.7 15.8-1.9 2.5-3.6 5-5.2 7.7l-1.3 2.6c-2.7 4.6-1.1 10.5 3.5 13.2 1.8 1 3.9 1.5 5.9 1.3 3.6-0.4 6.7-2.8 8-6.2l1.2-2.5c1.1-2.9 2-5.8 2.8-8.8 2.5-6.3 4-13.1 7.5-17.3 1.1-1.1 2.6-1.8 4.1-2l2.2-4c28.6 11 60.3 11.1 89 0.2l1.9 3.7c2 0.3 3.7 1.4 4.9 3 2.7 5.2 4.9 10.6 6.6 16.2 0.8 3 1.7 6 2.8 8.8l1.2 2.5c1.9 5 7.4 7.6 12.4 5.7 1.9-0.7 3.6-2.1 4.7-3.8 2-3.1 2.1-7 0.2-10.1l-1.3-2.6c-1.6-2.7-3.3-5.2-5.2-7.7-3.3-4.8-6.2-9.9-8.5-15.3-0.5-2-0.1-4.1 1-5.8-0.6-1.3-1.2-2.6-1.6-3.9 26.4-15.7 46.1-40.5 55.4-69.8l4.1 0.7c1.5-1.3 3.4-2.1 5.4-2 5.8 1.1 11.4 2.7 16.8 4.9 2.8 1.3 5.7 2.4 8.7 3.4 0.7 0.2 1.7 0.3 2.5 0.5h0.2c5.1 1.7 10.5-1.1 12.2-6.2 0.7-2 0.6-4.2 0-6.2-1.2-3.5-4.3-6-7.9-6.5l-2.8-0.6c-3.1-0.4-6.2-0.7-9.3-0.7-5.8-0.4-11.6-1.3-17.3-2.8-1.8-1-3.2-2.4-4.2-4.2l-3.9-1.1c4.2-30.4-3-61.3-20.1-86.8l3.4-3.2c-0.1-2 0.5-4 1.8-5.5 4.4-3.8 9.2-7.2 14.3-10.1 2.8-1.4 5.4-3 8-4.7l2.1-1.7c4.5-2.8 5.9-8.8 3.1-13.4-1.2-1.9-2.9-3.3-5-4-3.5-1.2-7.4-0.3-10.1 2.3l-2.1 1.7c-2.2 2.1-4.3 4.4-6.3 6.7-3.8 4.4-8.1 8.4-12.6 11.9-1.9 0.8-3.9 1-5.8 0.6l-3.7 2.6c-21.1-22.2-49.6-35.9-80.1-38.7 0-1.3-0.2-3.6-0.2-4.3-1.6-1.1-2.8-2.9-3.2-4.8-0.2-5.8 0.2-11.7 1.1-17.5 0.6-3 1.1-6.1 1.3-9.2v-2.7c0.3-5.6-3.9-10.3-9.5-10.7zm-12.1 74.8-2.8 50.6h-0.2c-0.2 4.7-4.2 8.3-8.9 8.1-1.7-0.1-3.3-0.6-4.6-1.6l-41.5-29.5c13.2-13 29.8-22 47.8-26 3.4-0.7 6.8-1.3 10.2-1.6zm24.2 0c21.8 2.7 42.1 12.5 57.7 27.8l-41.1 29.2c-3.7 2.9-9 2.3-11.9-1.3-1.2-1.5-1.8-3.3-1.9-5.2zm-97.3 46.7 37.9 33.8v0.2c3.5 3.1 3.9 8.5 0.8 12-1.1 1.3-2.5 2.2-4.2 2.6v0.2l-48.7 14c-2.3-21.9 2.6-44 14.2-62.8zm170.1 0c11.5 18.7 16.6 40.7 14.5 62.6l-48.7-14v-0.2c-4.5-1.2-7.2-5.9-6-10.4 0.4-1.6 1.3-3.1 2.6-4.2l37.6-33.7zm-92.7 36.5h15.5l9.5 12-3.5 15-13.9 6.7-14-6.7-3.3-15.1zm49.7 41.1c0.7-0.1 1.3-0.1 2 0l50.2 8.5c-7.4 20.9-21.5 38.7-40.2 50.6l-19.4-47c-1.8-4.3 0.2-9.3 4.5-11.2 0.9-0.4 1.9-0.6 2.8-0.7zm-84.3 0.2c4.7 0.1 8.4 3.9 8.4 8.6 0 1.1-0.3 2.2-0.7 3.2v0.2l-19.3 46.5c-18.4-11.8-32.4-29.4-39.9-50l49.7-8.5c0.6 0.1 1.2 0.1 1.8 0zm42.1 20.4c3.2-0.1 6.2 1.6 7.8 4.5h0.2l24.5 44.2c-3.2 1.1-6.5 2-9.8 2.7-18 4.1-36.9 3.2-54.4-2.8l24.5-44.2c1.5-2.6 4.2-4.2 7.2-4.3z"/>
		<path class="st2" d="m901.4 450.5c1.6-0.4 3.1-1.3 4.2-2.6 3.1-3.5 2.7-8.9-0.8-12v-0.2l-37.9-33.8c-11.5 18.8-16.5 40.9-14.1 62.8l48.7-14v-0.2z"/>
		<path class="st3" d="m909.6 479.7c-0.7 0-1.2 0-1.8 0.1l-49.7 8.5c7.5 20.6 21.5 38.2 39.9 50l19.3-46.5v-0.2c0.4-1 0.7-2.1 0.7-3.2 0.1-4.8-3.7-8.6-8.4-8.7z"/>
		<path class="st4" d="m928 413.8c4.7 0.2 8.7-3.4 8.9-8.1h0.2l2.8-50.6c-3.4 0.4-6.8 0.9-10.2 1.6-18.1 4.1-34.6 13.1-47.8 26l41.5 29.4c1.3 1.1 2.9 1.7 4.6 1.7z"/>
		<polygon class="st0" points="959.7 438.4 944.2 438.4 934.6 450.4 937.8 465.4 951.8 472.1 965.7 465.4 969.2 450.4"/>
		<path class="st5" d="m968.8 410.9c2.9 3.7 8.3 4.3 11.9 1.3l41.1-29.2c-15.7-15.4-36-25.1-57.7-27.8l2.8 50.5c0 1.9 0.7 3.7 1.9 5.2z"/>
		<path class="st6" d="m1037 402-37.6 33.7c-1.3 1.1-2.2 2.5-2.6 4.2-1.2 4.5 1.4 9.2 6 10.4v0.2l48.7 14c2.1-21.9-3-43.9-14.5-62.6z"/>
		<path class="st7" d="m993.9 479.5-0.1 0.2c-1 0.1-1.9 0.3-2.8 0.7-4.3 1.8-6.4 6.8-4.5 11.2l19.4 47c18.6-11.9 32.8-29.7 40.2-50.6l-50.2-8.5c-0.7-0.1-1.3-0.1-2 0z"/>
		<path class="st8" d="m959.5 504.6c-1.5-2.8-4.6-4.6-7.8-4.5v0.1c-3 0-5.7 1.7-7.2 4.3l-24.5 44.2c17.5 6 36.4 6.9 54.4 2.8 3.3-0.8 6.6-1.7 9.8-2.7l-24.5-44.2z"/>
	
</svg>
