<?xml version="1.0" encoding="UTF-8" standalone="no"?>
<!-- Generator: Adobe Illustrator 26.5.0, SVG Export Plug-In . SVG Version: 6.00 Build 0)  -->

<svg
   version="1.1"
   x="0px"
   y="0px"
   viewBox="0 0 1920 1080"
   style="enable-background:new 0 0 1920 1080;"
   xml:space="preserve"
   id="svg870"
   sodipodi:docname="Kubecolor_Logo_only_outline.svg"
   inkscape:version="1.2-dev (9ee32be, 2021-06-19)"
   inkscape:export-filename="/Users/prune/dev/perso/github.com/kubecolor/kubecolor/assets/img/Kubecolor_Logo_only_outline.png"
   inkscape:export-xdpi="96"
   inkscape:export-ydpi="96"
   xmlns:inkscape="http://www.inkscape.org/namespaces/inkscape"
   xmlns:sodipodi="http://sodipodi.sourceforge.net/DTD/sodipodi-0.dtd"
   xmlns="http://www.w3.org/2000/svg"
   xmlns:svg="http://www.w3.org/2000/svg"><defs
   id="defs874">


</defs><sodipodi:namedview
   id="namedview872"
   pagecolor="#505050"
   bordercolor="#ffffff"
   borderopacity="1"
   inkscape:pageshadow="0"
   inkscape:pageopacity="0"
   inkscape:pagecheckerboard="1"
   showgrid="false"
   inkscape:zoom="0.79311236"
   inkscape:cx="956.35882"
   inkscape:cy="539.64611"
   inkscape:window-width="1652"
   inkscape:window-height="980"
   inkscape:window-x="0"
   inkscape:window-y="25"
   inkscape:window-maximized="0"
   inkscape:current-layer="svg870" />
<style
   type="text/css"
   id="style824">
	.st0{fill:#326CE5;}
	.st1{fill:#FFFFFF;stroke:#FFFFFF;stroke-width:5.398700e-02;stroke-miterlimit:10;}
	.st2{fill:#7500B9;}
	.st3{fill:#F51D00;}
	.st4{fill:#0002F0;}
	.st5{fill:#00EBE4;}
	.st6{fill:#06F402;}
	.st7{fill:#E7F400;}
	.st8{fill:#F5A202;}
</style>
<g
   id="Layer_1">
</g>
<g
   id="g847">
		<path
   class="st0"
   d="m 950.2,221.7 c -4.1,0.2 -8.2,1.3 -11.9,3.2 l -161.2,76.9 c -8.4,4 -14.6,11.6 -16.7,20.7 L 721,495.2 c -1.9,8.1 -0.4,16.6 4.2,23.5 0.5,0.8 1.1,1.7 1.7,2.4 l 111.5,138.6 c 5.9,7.2 14.7,11.4 24,11.4 h 178.8 c 9.4,0 18.2,-4.2 24.1,-11.5 L 1176.7,521 c 5.8,-7.2 8,-16.8 5.9,-25.9 l -39.8,-172.9 c -2.1,-9.1 -8.2,-16.7 -16.7,-20.7 L 965,224.8 c -4.5,-2.2 -9.6,-3.3 -14.8,-3.1 z"
   id="path827"
   style="stroke:#000000;stroke-opacity:1" />
		<path
   class="st1"
   d="m 952.1,280.5 c -5.6,0.4 -9.8,5.2 -9.5,10.7 v 2.7 c 0.3,3.1 0.7,6.1 1.3,9.2 0.9,5.8 1.2,11.7 0.9,17.5 -0.6,1.9 -1.7,3.7 -3.2,5 l -0.2,4.1 c -5.9,0.5 -11.7,1.4 -17.4,2.7 -24.1,5.4 -46.1,18 -63,36 l -3.5,-2.5 c -1.9,0.6 -4,0.4 -5.7,-0.6 -4.7,-3.5 -9.1,-7.4 -13,-11.7 -2,-2.4 -4.1,-4.6 -6.3,-6.7 l -2.1,-1.7 c -1.9,-1.5 -4.3,-2.4 -6.7,-2.5 -3,-0.2 -5.8,1.1 -7.7,3.4 -3.3,4.6 -2.2,10.9 2.4,14.2 l 2,1.6 c 2.6,1.7 5.2,3.3 8,4.7 5.1,2.9 10,6.2 14.4,10 1.1,1.6 1.8,3.6 1.9,5.6 l 3.2,2.7 c -17,25.6 -24,56.6 -19.7,87 l -4,1.2 c -1.1,1.7 -2.5,3.1 -4.1,4.2 -5.7,1.5 -11.4,2.5 -17.3,2.8 -3.1,0.1 -6.2,0.3 -9.3,0.7 l -2.5,0.6 h -0.3 c -5.3,0.7 -9,5.6 -8.3,10.9 0.3,2.1 1.2,4 2.7,5.5 2.6,2.6 6.4,3.5 9.9,2.4 h 0.2 l 2.6,-0.3 c 2.9,-0.9 5.8,-1.9 8.7,-3.2 5.4,-2.2 11.1,-3.8 16.8,-4.9 2,0.1 3.9,0.8 5.5,2 l 4.2,-0.7 c 9.4,29.2 29.2,53.9 55.6,69.5 l -1.8,3.7 c 0.8,1.7 1.1,3.6 0.9,5.4 -2.4,5.5 -5.3,10.8 -8.7,15.8 -1.9,2.5 -3.6,5 -5.2,7.7 l -1.3,2.6 c -2.7,4.6 -1.1,10.5 3.5,13.2 1.8,1 3.9,1.5 5.9,1.3 3.6,-0.4 6.7,-2.8 8,-6.2 l 1.2,-2.5 c 1.1,-2.9 2,-5.8 2.8,-8.8 2.5,-6.3 4,-13.1 7.5,-17.3 1.1,-1.1 2.6,-1.8 4.1,-2 l 2.2,-4 c 28.6,11 60.3,11.1 89,0.2 l 1.9,3.7 c 2,0.3 3.7,1.4 4.9,3 2.7,5.2 4.9,10.6 6.6,16.2 0.8,3 1.7,6 2.8,8.8 l 1.2,2.5 c 1.9,5 7.4,7.6 12.4,5.7 1.9,-0.7 3.6,-2.1 4.7,-3.8 2,-3.1 2.1,-7 0.2,-10.1 l -1.3,-2.6 c -1.6,-2.7 -3.3,-5.2 -5.2,-7.7 -3.3,-4.8 -6.2,-9.9 -8.5,-15.3 -0.5,-2 -0.1,-4.1 1,-5.8 -0.6,-1.3 -1.2,-2.6 -1.6,-3.9 26.4,-15.7 46.1,-40.5 55.4,-69.8 l 4.1,0.7 c 1.5,-1.3 3.4,-2.1 5.4,-2 5.8,1.1 11.4,2.7 16.8,4.9 2.8,1.3 5.7,2.4 8.7,3.4 0.7,0.2 1.7,0.3 2.5,0.5 h 0.2 c 5.1,1.7 10.5,-1.1 12.2,-6.2 0.7,-2 0.6,-4.2 0,-6.2 -1.2,-3.5 -4.3,-6 -7.9,-6.5 l -2.8,-0.6 c -3.1,-0.4 -6.2,-0.7 -9.3,-0.7 -5.8,-0.4 -11.6,-1.3 -17.3,-2.8 -1.8,-1 -3.2,-2.4 -4.2,-4.2 l -3.9,-1.1 c 4.2,-30.4 -3,-61.3 -20.1,-86.8 l 3.4,-3.2 c -0.1,-2 0.5,-4 1.8,-5.5 4.4,-3.8 9.2,-7.2 14.3,-10.1 2.8,-1.4 5.4,-3 8,-4.7 l 2.1,-1.7 c 4.5,-2.8 5.9,-8.8 3.1,-13.4 -1.2,-1.9 -2.9,-3.3 -5,-4 -3.5,-1.2 -7.4,-0.3 -10.1,2.3 l -2.1,1.7 c -2.2,2.1 -4.3,4.4 -6.3,6.7 -3.8,4.4 -8.1,8.4 -12.6,11.9 -1.9,0.8 -3.9,1 -5.8,0.6 l -3.7,2.6 c -21.1,-22.2 -49.6,-35.9 -80.1,-38.7 0,-1.3 -0.2,-3.6 -0.2,-4.3 -1.6,-1.1 -2.8,-2.9 -3.2,-4.8 -0.2,-5.8 0.2,-11.7 1.1,-17.5 0.6,-3 1.1,-6.1 1.3,-9.2 V 291 c 0.3,-5.6 -3.9,-10.3 -9.5,-10.7 z m -12.1,74.8 -2.8,50.6 H 937 c -0.2,4.7 -4.2,8.3 -8.9,8.1 -1.7,-0.1 -3.3,-0.6 -4.6,-1.6 L 882,382.9 c 13.2,-13 29.8,-22 47.8,-26 3.4,-0.7 6.8,-1.3 10.2,-1.6 z m 24.2,0 c 21.8,2.7 42.1,12.5 57.7,27.8 l -41.1,29.2 c -3.7,2.9 -9,2.3 -11.9,-1.3 -1.2,-1.5 -1.8,-3.3 -1.9,-5.2 z m -97.3,46.7 37.9,33.8 v 0.2 c 3.5,3.1 3.9,8.5 0.8,12 -1.1,1.3 -2.5,2.2 -4.2,2.6 v 0.2 l -48.7,14 c -2.3,-21.9 2.6,-44 14.2,-62.8 z m 170.1,0 c 11.5,18.7 16.6,40.7 14.5,62.6 l -48.7,-14 v -0.2 c -4.5,-1.2 -7.2,-5.9 -6,-10.4 0.4,-1.6 1.3,-3.1 2.6,-4.2 l 37.6,-33.7 z m -92.7,36.5 h 15.5 l 9.5,12 -3.5,15 -13.9,6.7 -14,-6.7 -3.3,-15.1 z m 49.7,41.1 c 0.7,-0.1 1.3,-0.1 2,0 l 50.2,8.5 c -7.4,20.9 -21.5,38.7 -40.2,50.6 l -19.4,-47 c -1.8,-4.3 0.2,-9.3 4.5,-11.2 0.9,-0.4 1.9,-0.6 2.8,-0.7 z m -84.3,0.2 c 4.7,0.1 8.4,3.9 8.4,8.6 0,1.1 -0.3,2.2 -0.7,3.2 v 0.2 l -19.3,46.5 c -18.4,-11.8 -32.4,-29.4 -39.9,-50 l 49.7,-8.5 c 0.6,0.1 1.2,0.1 1.8,0 z m 42.1,20.4 c 3.2,-0.1 6.2,1.6 7.8,4.5 h 0.2 l 24.5,44.2 c -3.2,1.1 -6.5,2 -9.8,2.7 -18,4.1 -36.9,3.2 -54.4,-2.8 l 24.5,-44.2 c 1.5,-2.6 4.2,-4.2 7.2,-4.3 z"
   id="path829"
   style="stroke:#000000;stroke-opacity:1;stroke-width:2.69858268;stroke-miterlimit:10;stroke-dasharray:none" />
		<path
   class="st2"
   d="m 901.4,450.5 c 1.6,-0.4 3.1,-1.3 4.2,-2.6 3.1,-3.5 2.7,-8.9 -0.8,-12 v -0.2 l -37.9,-33.8 v 0 c -11.5,18.8 -16.5,40.9 -14.1,62.8 l 48.7,-14 v -0.2 z"
   id="path831" />
		<path
   class="st3"
   d="m 909.6,479.7 v 0 c -0.7,0 -1.2,0 -1.8,0.1 l -49.7,8.5 c 7.5,20.6 21.5,38.2 39.9,50 l 19.3,-46.5 v -0.2 c 0.4,-1 0.7,-2.1 0.7,-3.2 0.1,-4.8 -3.7,-8.6 -8.4,-8.7 z"
   id="path833" />
		<path
   class="st4"
   d="m 928,413.8 c 4.7,0.2 8.7,-3.4 8.9,-8.1 h 0.2 l 2.8,-50.6 c -3.4,0.4 -6.8,0.9 -10.2,1.6 -18.1,4.1 -34.6,13.1 -47.8,26 l 41.5,29.4 c 1.3,1.1 2.9,1.7 4.6,1.7 z"
   id="path835" />
		<polygon
   class="st0"
   points="944.2,438.4 934.6,450.4 937.8,465.4 951.8,472.1 965.7,465.4 969.2,450.4 959.7,438.4 "
   id="polygon837" />
		<path
   class="st5"
   d="m 968.8,410.9 c 2.9,3.7 8.3,4.3 11.9,1.3 l 41.1,-29.2 c -15.7,-15.4 -36,-25.1 -57.7,-27.8 l 2.8,50.5 c 0,1.9 0.7,3.7 1.9,5.2 z"
   id="path839" />
		<path
   class="st6"
   d="m 1037,402 -37.6,33.7 c -1.3,1.1 -2.2,2.5 -2.6,4.2 -1.2,4.5 1.4,9.2 6,10.4 v 0.2 l 48.7,14 c 2.1,-21.9 -3,-43.9 -14.5,-62.6 z"
   id="path841" />
		<path
   class="st7"
   d="m 993.9,479.5 -0.1,0.2 c -1,0.1 -1.9,0.3 -2.8,0.7 -4.3,1.8 -6.4,6.8 -4.5,11.2 l 19.4,47 c 18.6,-11.9 32.8,-29.7 40.2,-50.6 l -50.2,-8.5 c -0.7,-0.1 -1.3,-0.1 -2,0 z"
   id="path843" />
		<path
   class="st8"
   d="m 959.5,504.6 c -1.5,-2.8 -4.6,-4.6 -7.8,-4.5 v 0.1 c -3,0 -5.7,1.7 -7.2,4.3 L 920,548.7 c 17.5,6 36.4,6.9 54.4,2.8 3.3,-0.8 6.6,-1.7 9.8,-2.7 l -24.5,-44.2 z"
   id="path845" />
	</g>
</svg>
