<?xml version="1.0" encoding="UTF-8" standalone="no"?>
<svg
   enable-background="new 0 0 1920 1080"
   version="1.1"
   viewBox="0 0 32 32"
   xml:space="preserve"
   id="svg9"
   sodipodi:docname="Kubecolor_Logo_only-single.svg"
   inkscape:export-filename="Kubecolor_Logo_only-single.svg"
   inkscape:export-xdpi="96"
   inkscape:export-ydpi="96"
   width="32"
   height="32"
   inkscape:version="1.3 (0e150ed, 2023-07-21)"
   xmlns:inkscape="http://www.inkscape.org/namespaces/inkscape"
   xmlns:sodipodi="http://sodipodi.sourceforge.net/DTD/sodipodi-0.dtd"
   xmlns="http://www.w3.org/2000/svg"
   xmlns:svg="http://www.w3.org/2000/svg"><defs
   id="defs9" /><sodipodi:namedview
   id="namedview9"
   pagecolor="#ffffff"
   bordercolor="#000000"
   borderopacity="0.25"
   inkscape:showpageshadow="2"
   inkscape:pageopacity="0.0"
   inkscape:pagecheckerboard="0"
   inkscape:deskcolor="#d1d1d1"
   inkscape:zoom="40.009712"
   inkscape:cx="16.346031"
   inkscape:cy="20.095121"
   inkscape:window-width="4176"
   inkscape:window-height="2025"
   inkscape:window-x="0"
   inkscape:window-y="25"
   inkscape:window-maximized="0"
   inkscape:current-layer="svg9" />&#10;<style
   type="text/css"
   id="style1">&#10;	.st0{fill:#326CE5;}&#10;	.st1{fill:#FFFFFF;stroke:#FFFFFF;stroke-width:5.398700e-02;stroke-miterlimit:10;}&#10;	.st2{fill:#7500B9;}&#10;	.st3{fill:#F51D00;}&#10;	.st4{fill:#0002F0;}&#10;	.st5{fill:#00EBE4;}&#10;	.st6{fill:#06F402;}&#10;	.st7{fill:#E7F400;}&#10;	.st8{fill:#F5A202;}&#10;</style>&#10;&#10;&#10;		<path
   class="st0"
   d="m 15.948522,0.64456731 c -0.27691,0.0135 -0.553813,0.0878055 -0.80371,0.21612339 L 4.2575204,6.0544399 C 3.6901928,6.3245968 3.2714538,6.8378969 3.1296187,7.4524984 L 0.46858336,19.116486 c -0.12832182,0.547067 -0.0269878,1.121148 0.28366372,1.587168 0.0338004,0.05404 0.0742944,0.114818 0.1148154,0.162089 l 7.53060012,9.36091 c 0.3984852,0.486281 0.9928265,0.769945 1.6209414,0.769945 h 12.075974 c 0.634861,0 1.229209,-0.283664 1.627687,-0.776697 l 7.523847,-9.360911 c 0.391726,-0.486281 0.540307,-1.134656 0.39848,-1.749257 L 28.956536,7.4322381 C 28.814707,6.81763 28.402715,6.3043364 27.828633,6.0341795 L 16.948102,0.853937 C 16.644178,0.70535554 16.299727,0.63106113 15.948522,0.64456731 Z"
   id="path1"
   style="stroke-width:0.0675389" />&#10;		<path
   class="st1"
   d="m 16.076851,4.6158608 c -0.378218,0.026988 -0.661883,0.3512045 -0.641623,0.7226694 V 5.520886 c 0.02024,0.2093695 0.04729,0.4119855 0.08781,0.6213551 0.06079,0.3917252 0.08105,0.7902104 0.06079,1.1819356 -0.04055,0.1283217 -0.114818,0.2498901 -0.216128,0.3376911 l -0.0135,0.2769104 c -0.398484,0.0338 -0.790208,0.094554 -1.17518,0.1823558 -1.627695,0.3647114 -3.113549,1.2157028 -4.254957,2.431405 L 9.6876723,10.383691 C 9.5593506,10.424237 9.4175154,10.410679 9.3027005,10.343144 8.9852695,10.106754 8.6880924,9.8433574 8.4246954,9.5529336 8.2896138,9.3908448 8.1477851,9.2422562 7.9991964,9.1004276 L 7.8573678,8.9856061 C 7.7290396,8.8842981 7.5669506,8.8235172 7.4048552,8.8167637 7.2022392,8.8032698 7.01313,8.891052 6.8848017,9.0463935 6.6619253,9.3570711 6.7362196,9.7825699 7.0468972,10.005446 l 0.1350751,0.108062 c 0.1756024,0.114821 0.3512047,0.222883 0.5403139,0.317437 0.3444512,0.195863 0.675389,0.418739 0.9725596,0.675389 0.074294,0.108062 0.1215753,0.243143 0.1283284,0.378218 l 0.2161229,0.182356 c -1.1481621,1.728996 -1.620935,3.822704 -1.3305178,5.875891 l -0.270157,0.08105 c -0.074294,0.114817 -0.1688488,0.209369 -0.2769102,0.283663 -0.3849719,0.101306 -0.7699436,0.168849 -1.1684224,0.18911 -0.2093694,0.0067 -0.4187455,0.02024 -0.6281149,0.04729 l -0.1688488,0.04055 h -0.02024 c -0.3579581,0.04729 -0.6078482,0.378219 -0.5605742,0.736176 0.02024,0.141829 0.081048,0.270157 0.1823558,0.371465 0.1756023,0.175602 0.4322523,0.236383 0.6686356,0.16209 h 0.013494 l 0.1756024,-0.02024 c 0.1958625,-0.06079 0.3917252,-0.128323 0.5875878,-0.216123 0.3647115,-0.148589 0.7496834,-0.256651 1.1346617,-0.330945 0.1350751,0.0067 0.2633968,0.05404 0.3714583,0.135082 l 0.2836638,-0.04729 c 0.6348684,1.972139 1.9721398,3.640355 3.7551698,4.693962 l -0.121569,0.249894 c 0.05404,0.114818 0.07429,0.243137 0.06079,0.364713 -0.162095,0.371464 -0.357958,0.729415 -0.587594,1.067113 -0.128322,0.16885 -0.243137,0.337698 -0.351198,0.520053 l -0.0878,0.175597 c -0.182356,0.310683 -0.07429,0.709162 0.236383,0.891518 0.121575,0.06754 0.263404,0.101305 0.398479,0.0878 0.243143,-0.02699 0.452512,-0.18911 0.540314,-0.418745 l 0.08105,-0.168845 c 0.07429,-0.19587 0.135082,-0.391732 0.189109,-0.594348 0.168849,-0.425492 0.270157,-0.884759 0.50654,-1.168423 0.07429,-0.07429 0.175602,-0.121574 0.27691,-0.135081 l 0.148589,-0.270151 c 1.931613,0.742924 4.0726,0.749677 6.010973,0.0135 l 0.128322,0.249891 c 0.135082,0.02024 0.249897,0.09455 0.330945,0.202616 0.182356,0.351204 0.330937,0.715916 0.445753,1.094134 0.05404,0.202616 0.114818,0.405232 0.189108,0.594341 l 0.08105,0.168849 c 0.128329,0.337698 0.499786,0.513301 0.837484,0.384972 0.128322,-0.04729 0.243144,-0.141829 0.317431,-0.256644 0.135082,-0.209375 0.141835,-0.472772 0.01349,-0.682148 l -0.0878,-0.175602 c -0.108074,-0.18235 -0.222883,-0.351199 -0.351205,-0.520048 -0.222877,-0.324191 -0.418745,-0.668636 -0.574082,-1.033347 -0.03379,-0.135075 -0.0067,-0.27691 0.06754,-0.391725 -0.04055,-0.0878 -0.08105,-0.175602 -0.108074,-0.263404 1.783031,-1.06036 3.113549,-2.735329 3.741664,-4.714223 l 0.27691,0.04729 c 0.101305,-0.0878 0.22963,-0.141835 0.364712,-0.135081 0.391724,0.07429 0.769943,0.182356 1.134655,0.330945 0.189108,0.0878 0.384972,0.162089 0.587588,0.229629 0.04729,0.01349 0.114818,0.02024 0.168849,0.03381 h 0.01349 c 0.344452,0.114818 0.709163,-0.07429 0.823978,-0.41874 0.04729,-0.135075 0.04055,-0.283664 0,-0.418739 -0.08104,-0.236389 -0.290412,-0.405238 -0.533555,-0.439005 l -0.189108,-0.04055 c -0.20937,-0.02699 -0.41874,-0.04729 -0.628116,-0.04729 -0.391725,-0.02699 -0.78345,-0.0878 -1.168422,-0.189108 -0.121574,-0.06754 -0.216123,-0.162096 -0.283664,-0.283664 l -0.263403,-0.07429 c 0.283684,-2.053197 -0.202597,-4.140152 -1.357512,-5.862395 l 0.22963,-0.216122 c -0.0067,-0.135082 0.03381,-0.270157 0.121574,-0.371465 0.297172,-0.25665 0.621355,-0.48628 0.965806,-0.682142 0.18911,-0.09455 0.364713,-0.202623 0.540315,-0.317438 l 0.141807,-0.1148261 c 0.303924,-0.1891092 0.398479,-0.5943413 0.20937,-0.9050254 -0.08105,-0.1283218 -0.195863,-0.2228763 -0.337692,-0.2701569 -0.236389,-0.081041 -0.499793,-0.02024 -0.682148,0.155342 L 24.113978,9.066693 c -0.148589,0.1418351 -0.290417,0.2971707 -0.425499,0.4525127 -0.256644,0.2971706 -0.547061,0.5673273 -0.850991,0.8037173 -0.128322,0.05404 -0.263397,0.06753 -0.391725,0.04055 l -0.249891,0.175602 C 20.770801,9.0397053 18.845934,8.1144197 16.785993,7.9253105 c 0,-0.087802 -0.01349,-0.2431366 -0.01349,-0.2904171 -0.108062,-0.074294 -0.189109,-0.1958627 -0.216123,-0.3241844 -0.0135,-0.3917252 0.01349,-0.7902104 0.07429,-1.1819357 0.04055,-0.202616 0.07429,-0.4119854 0.0878,-0.621355 V 5.3250626 C 16.73873,4.9468442 16.455078,4.6294068 16.07686,4.602393 Z m -0.817224,5.0519204 -0.18911,3.4174718 h -0.0135 c -0.01349,0.317431 -0.283664,0.560574 -0.601094,0.547067 -0.114818,-0.0067 -0.222883,-0.04055 -0.310685,-0.108061 l -2.802857,-1.992407 c 0.891512,-0.878005 2.01266,-1.485853 3.228362,-1.7560094 0.229631,-0.047293 0.459267,-0.087801 0.688896,-0.1080617 z m 1.634442,0 c 1.472352,0.1823557 2.843397,0.8442378 3.897005,1.8775848 l -2.775858,1.972139 c -0.249889,0.195862 -0.607848,0.155335 -0.80371,-0.0878 -0.08105,-0.101306 -0.121574,-0.222884 -0.128329,-0.351205 z m -6.571541,3.1540678 2.559727,2.282818 v 0.01349 c 0.236383,0.209375 0.263403,0.574086 0.05404,0.81047 -0.07429,0.0878 -0.168842,0.148589 -0.283664,0.175602 v 0.0135 L 9.3634842,17.063273 C 9.2081459,15.584166 9.5390837,14.09156 10.322541,12.821823 Z m 11.488386,0 c 0.776696,1.262984 1.121141,2.748837 0.979312,4.227943 l -3.28915,-0.945545 v -0.0135 c -0.303924,-0.08105 -0.48628,-0.39848 -0.405232,-0.70241 0.02699,-0.108062 0.08781,-0.20937 0.175603,-0.283664 l 2.539467,-2.276063 z m -6.26087,2.465173 h 1.046854 l 0.641622,0.810471 -0.236384,1.013086 -0.938792,0.452507 -0.945546,-0.452507 -0.222883,-1.01984 z m 3.35669,2.775857 c 0.04729,-0.0067 0.08781,-0.0067 0.135076,0 l 3.390459,0.574081 c -0.499787,1.411566 -1.452086,2.613761 -2.715069,3.417472 l -1.310258,-3.174335 c -0.121574,-0.290418 0.01349,-0.628109 0.30393,-0.756437 0.06079,-0.02699 0.128322,-0.04055 0.18911,-0.04729 z m -5.693541,0.0135 c 0.317437,0.0067 0.567327,0.263403 0.567327,0.580835 0,0.07429 -0.02024,0.148587 -0.04729,0.216122 v 0.0135 l -1.303504,3.140556 C 11.187006,21.230428 10.24146,20.041746 9.7349201,18.65044 l 3.3566849,-0.57408 c 0.04055,0.0067 0.08105,0.0067 0.121574,0 z m 2.843398,1.377791 c 0.216122,-0.0067 0.418738,0.108074 0.5268,0.303932 h 0.01349 l 1.654708,2.98522 c -0.216123,0.07429 -0.439006,0.135081 -0.661882,0.182354 -1.215703,0.276911 -2.492194,0.21613 -3.674122,-0.189108 l 1.654702,-2.98522 c 0.101314,-0.175609 0.283669,-0.28367 0.486293,-0.290424 z"
   id="path2" />&#10;		<path
   class="st2"
   d="m 12.652618,16.097493 c 0.108062,-0.02699 0.209376,-0.0878 0.283664,-0.175602 0.209376,-0.236384 0.182356,-0.601095 -0.05404,-0.810472 v -0.01349 l -2.559727,-2.28282 c -0.7766975,1.269737 -1.1143952,2.762344 -0.9522999,4.24145 l 3.2891509,-0.945546 v -0.0135 z"
   id="path3"
   style="stroke-width:0.0675389" />&#10;		<path
   class="st3"
   d="m 13.206439,18.069632 c -0.04729,0 -0.08105,0 -0.121574,0.0067 l -3.3566914,0.574084 c 0.5065464,1.391306 1.4520924,2.579988 2.6948094,3.376952 l 1.303503,-3.140569 v -0.0135 c 0.02699,-0.06754 0.04729,-0.141827 0.04729,-0.216122 0.0067,-0.324185 -0.24989,-0.580834 -0.567328,-0.587588 z"
   id="path4"
   style="stroke-width:0.0675389" />&#10;		<path
   class="st4"
   d="m 14.449162,13.618813 c 0.317431,0.0135 0.587588,-0.229636 0.601095,-0.547067 h 0.01349 l 0.189109,-3.4174716 c -0.22963,0.026988 -0.459267,0.060787 -0.688896,0.1080617 -1.22245,0.2769099 -2.336845,0.8847579 -3.228363,1.7560099 l 2.80287,1.985646 c 0.0878,0.07429 0.195863,0.114817 0.310685,0.114817 z"
   id="path5"
   style="stroke-width:0.0675389" />&#10;		<polygon
   class="st0"
   points="959.7,438.4 944.2,438.4 934.6,450.4 937.8,465.4 951.8,472.1 965.7,465.4 969.2,450.4 "
   id="polygon5"
   transform="matrix(0.067539,0,0,0.067539,-48.227038,-14.328832)" />&#10;		<path
   class="st5"
   d="m 17.204752,13.422951 c 0.195863,0.249889 0.560575,0.290416 0.803711,0.08779 L 20.78432,11.538609 C 19.723952,10.498512 18.352915,9.8433836 16.887315,9.6610277 l 0.18911,3.4107183 c 0,0.128322 0.04729,0.249889 0.128327,0.351205 z"
   id="path6"
   style="stroke-width:0.0675389" />&#10;		<path
   class="st6"
   d="m 21.810914,12.821849 -2.539467,2.276064 c -0.08781,0.07429 -0.148589,0.168849 -0.175603,0.283664 -0.08105,0.30393 0.09455,0.621362 0.405232,0.702409 v 0.01349 l 3.28915,0.945547 C 22.932055,15.563917 22.58761,14.078057 21.810914,12.81508 Z"
   id="path7"
   style="stroke-width:0.0675389" />&#10;		<path
   class="st7"
   d="m 18.899982,18.056126 -0.0067,0.0135 c -0.06755,0.0067 -0.128331,0.02024 -0.189112,0.04729 -0.290418,0.121574 -0.432253,0.459266 -0.303931,0.756437 l 1.310257,3.174335 c 1.25623,-0.803717 2.215283,-2.005907 2.715069,-3.417471 l -3.390458,-0.574088 c -0.04729,-0.0067 -0.0878,-0.0067 -0.135075,0 z"
   id="path8"
   style="stroke-width:0.0675389" />&#10;		<path
   class="st8"
   d="M 16.576637,19.751355 C 16.475332,19.562246 16.26596,19.44067 16.04983,19.447424 v 0.0067 c -0.202616,0 -0.384971,0.114818 -0.486279,0.290424 l -1.654702,2.985222 c 1.181928,0.40524 2.458419,0.46602 3.674122,0.18911 0.222876,-0.05404 0.445753,-0.114818 0.661882,-0.182356 l -1.654708,-2.98522 z"
   id="path9"
   style="display:inline;stroke-width:0.0675389" />&#10;&#10;</svg>
